<?xml version="1.0" encoding="UTF-8" standalone="no"?>
<svg
   xmlns:svg="http://www.w3.org/2000/svg"
   xmlns="http://www.w3.org/2000/svg"
   width="64" height="64" viewBox="0 0 64 64" >
  <defs>
  	 <style type="text/css"><![CDATA[
       .myfill {
         fill: #1b6eae;
       }
       .myfill2 {
         fill: #124b76;
       }
    ]]></style>
  </defs>
  <g>
    <g transform="translate(178.5,98.5)scale(0.34)">
      <path class="myfill2"
         d="m -431,-102 c -14.147,0 -93.6,-34.902 -93.6,-93.594 v -81.005 c 0,-8.704 3.819,-12.585 12.383,-12.585 l 21.298,-0.003 c 11.765,0 13.036,7.785 13.036,11.133 0,1.404 0.009,4.264 0.018,6.907 0.006,2.014 0.013,3.903 0.014,4.934 0.843,0.699 4.039,1.806 9.135,1.806 5.212,0 8.513,-1.133 9.411,-1.855 0.003,-0.762 0.014,-2.061 0.025,-3.535 0.02,-2.499 0.044,-5.512 0.044,-7.251 0,-7.487 5.853,-12.138 15.274,-12.138 l 25.928,-0.013 c 6.556,0 15.271,1.325 15.271,12.787 0,1.217 0.023,3.983 0.044,6.4 0.013,1.559 0.024,2.974 0.028,3.749 0.897,0.723 4.198,1.855 9.411,1.855 5.094,-10e-4 8.289,-1.105 9.134,-1.806 -0.004,-1.019 -0.021,-2.629 -0.038,-4.349 -0.023,-2.297 -0.049,-4.788 -0.049,-6.353 0,-8.841 3.688,-12.285 13.155,-12.285 l 21.297,0.003 c 8.564,0 12.383,3.881 12.383,12.585 v 81.006 c 0,34.312 -23.052,57.634 -42.391,71.156 C -400.869,-109.71 -424.333,-102 -431,-102 z" />
      <path
         style="fill:#ffffff"
         d="m -349.783,-286.997 c -5.86,0 -17.603,-0.003 -21.297,-0.003 -7.547,0 -9.556,1.959 -9.556,8.686 0,2.888 0.088,8.946 0.088,11.063 0,6.819 -25.744,6.628 -25.744,0 0,-1.308 -0.073,-8.391 -0.073,-10.562 0,-6.827 -3.435,-9.188 -11.671,-9.188 -4.938,0 -20.997,0.013 -25.928,0.013 -5.979,0 -11.674,2.146 -11.674,8.538 0,2.984 -0.07,9.699 -0.07,11.198 0,6.628 -25.744,6.819 -25.744,0 0,-1.933 -0.032,-9.587 -0.032,-12.203 0,-5.52 -3.685,-7.533 -9.436,-7.533 -3.693,0 -15.438,0.003 -21.298,0.003 -6.88,0 -8.783,2.508 -8.783,8.985 0,19.222 0,56.456 0,81.005 0,55.787 76.948,89.994 90,89.994 11.056,0 90,-28.131 90,-90.006 0,-24.55 0,-61.784 0,-81.006 10e-4,-6.476 -1.901,-8.984 -8.782,-8.984 z" />
      <g>
        <path class="myfill"
           d="m -442.801,-274.132 c -0.008,1.031 -0.05,6.276 -0.05,6.881 0,8.257 -6.774,17.899 -25.867,17.899 -3.371,0 -8.368,-0.342 -13.023,-1.978 -11.661,-4.097 -12.568,-13.223 -12.568,-15.922 0,-0.887 -0.017,-6.333 -0.019,-6.879 l -13.815,0.003 v 77.133 c 0,44.655 64.305,75.618 77.127,77.116 0.006,0 0.011,-10e-4 0.016,-10e-4 v -154.258 l -11.801,0.006 z" />
      </g>
      <g>
        <path
           style="fill:#ffffff"
           d="m -467.804,-215.188 c -5.606,0 -10.151,4.545 -10.151,10.152 0,5.606 4.545,10.151 10.151,10.151 5.608,0 10.153,-4.545 10.153,-10.151 0,-5.608 -4.545,-10.152 -10.153,-10.152 z m 0,15.884 c -3.164,0 -5.73,-2.568 -5.73,-5.732 0,-3.165 2.566,-5.731 5.73,-5.731 3.167,0 5.732,2.566 5.732,5.731 0,3.164 -2.565,5.732 -5.732,5.732 z" />
        <path
           style="fill:#ffffff"
           d="m -451.865,-213.369 c -1.679,0 -3.042,1.361 -3.042,3.041 0,1.065 0.549,1.998 1.376,2.543 v 11.686 c 0,0.691 0.56,1.25 1.251,1.25 h 0.857 c 0.69,0 1.249,-0.559 1.249,-1.25 V -207.8 c 0.813,-0.547 1.35,-1.475 1.35,-2.527 0.001,-1.681 -1.361,-3.042 -3.041,-3.042 z" />
        <path
           style="fill:#ffffff"
           d="m -446.387,-232.346 h -42.831 c -3.252,0 -5.895,2.645 -5.895,5.893 v 1.561 c -2.031,0.525 -3.538,2.366 -3.538,4.56 v 8.546 c 0,2.193 1.507,4.036 3.538,4.562 v 5.002 c -2.031,0.526 -3.538,2.37 -3.538,4.562 v 8.547 c 0,2.192 1.507,4.035 3.538,4.562 v 0.934 c 0,3.25 2.643,5.895 5.895,5.895 h 42.831 c 3.25,0 5.895,-2.645 5.895,-5.895 v -42.833 c 0,-3.251 -2.645,-5.896 -5.895,-5.896 z m -49.118,20.559 v -8.546 c 0,-0.865 0.705,-1.571 1.571,-1.571 h 3.34 c 0.868,0 1.571,0.706 1.571,1.571 v 8.546 c 0,0.867 -0.703,1.572 -1.571,1.572 h -3.34 c -0.867,0 -1.571,-0.705 -1.571,-1.572 z m 1.57,24.243 c -0.866,0 -1.571,-0.705 -1.571,-1.571 v -8.547 c 0,-0.866 0.705,-1.573 1.571,-1.573 h 3.34 c 0.868,0 1.571,0.707 1.571,1.573 v 8.547 c 0,0.866 -0.703,1.571 -1.571,1.571 h -3.34 z m 47.94,3.924 c 0,0.21 -0.184,0.394 -0.393,0.394 h -42.831 c -0.21,0 -0.394,-0.184 -0.394,-0.394 v -0.884 c 2.13,-0.455 3.734,-2.348 3.734,-4.611 v -8.547 c 0,-2.264 -1.604,-4.156 -3.734,-4.611 v -4.901 c 2.13,-0.454 3.734,-2.347 3.734,-4.612 v -8.546 c 0,-2.264 -1.604,-4.158 -3.734,-4.611 v -1.509 c 0,-0.208 0.184,-0.392 0.394,-0.392 h 42.831 c 0.209,0 0.393,0.184 0.393,0.392 v 42.832 z" />
      </g>
      <path class="myfill"
         d="m -359.909,-183.788 -27.466,-48.291 c -1.748,-3.073 -4.604,-3.071 -6.347,0.006 l -27.341,48.278 c -1.742,3.076 -0.275,5.594 3.262,5.594 h 54.643 c 3.535,0 4.998,-2.514 3.249,-5.587 z m -26.192,-2.616 c 0,1.257 -1.026,2.28 -2.282,2.28 h -4.539 c -1.254,0 -2.28,-1.023 -2.28,-2.28 v -1.669 c 0,-1.255 1.026,-2.281 2.28,-2.281 h 4.539 c 1.256,0 2.282,1.026 2.282,2.281 v 1.669 z m -0.457,-9.836 c -0.076,1.252 -1.164,2.275 -2.415,2.275 h -3.358 c -1.254,0 -2.332,-1.023 -2.398,-2.275 l -0.995,-19.041 c -0.069,-1.252 0.904,-2.275 2.16,-2.275 h 6.023 c 1.256,0 2.216,1.023 2.143,2.275 l -1.16,19.041 z" />
    </g>
  </g>
</svg>
