<?xml version="1.0" encoding="UTF-8" standalone="no"?>
<!-- Created with Inkscape (http://www.inkscape.org/) -->

<svg
   xmlns:dc="http://purl.org/dc/elements/1.1/"
   xmlns:cc="http://creativecommons.org/ns#"
   xmlns:rdf="http://www.w3.org/1999/02/22-rdf-syntax-ns#"
   xmlns:svg="http://www.w3.org/2000/svg"
   xmlns="http://www.w3.org/2000/svg"
   xmlns:sodipodi="http://sodipodi.sourceforge.net/DTD/sodipodi-0.dtd"
   xmlns:inkscape="http://www.inkscape.org/namespaces/inkscape"
   width="64px"
   height="64px"
   viewBox="0 0 64 64"
   id="svg3385"
   version="1.1"
   inkscape:version="0.48.2 r9819"
   sodipodi:docname="buildingServices.svg"
   inkscape:export-filename="C:\workspaces_3.7\workspace\Horizon3\WebContent\app\Learn\assets\images\storeInventory.png"
   inkscape:export-xdpi="180"
   inkscape:export-ydpi="180">
  <defs
     id="defs3387" />
  <sodipodi:namedview
     id="base"
     pagecolor="#ffffff"
     bordercolor="#666666"
     borderopacity="1.0"
     inkscape:pageopacity="0.0"
     inkscape:pageshadow="2"
     inkscape:zoom="7.7781745"
     inkscape:cx="45.922799"
     inkscape:cy="25.956601"
     inkscape:current-layer="layer1"
     showgrid="true"
     inkscape:document-units="px"
     inkscape:grid-bbox="true"
     inkscape:window-width="1117"
     inkscape:window-height="935"
     inkscape:window-x="149"
     inkscape:window-y="59"
     inkscape:window-maximized="0" />
  <metadata
     id="metadata3390">
    <rdf:RDF>
      <cc:Work
         rdf:about="">
        <dc:format>image/svg+xml</dc:format>
        <dc:type
           rdf:resource="http://purl.org/dc/dcmitype/StillImage" />
        <dc:title></dc:title>
      </cc:Work>
    </rdf:RDF>
  </metadata>
  <g
     id="layer1"
     inkscape:label="Layer 1"
     inkscape:groupmode="layer">
    <g
       transform="matrix(0.35141858,0,0,0.34293958,85.854721,-13.389413)"
       id="g115">
      <path
         style="fill:#563e76"
         inkscape:connector-curvature="0"
         d="m -236.965,214 c -0.998,0 -1.808,-0.81 -1.808,-1.808 V 98.207 c -1.698,-1.405 -5.536,-5.162 -5.536,-10.401 0,-0.998 0.81,-1.808 1.808,-1.808 h 14.009 V 72.884 c -1.543,-1.267 -4.745,-4.423 -4.745,-8.803 0,-0.998 0.81,-1.808 1.808,-1.808 h 11.965 c 3.463,-2.958 22.574,-17.398 65.537,-17.398 41.096,0 61.905,14.623 65.482,17.398 h 13.375 c 0.998,0 1.808,0.81 1.808,1.808 0,4.931 -3.096,7.756 -4.745,8.91 v 13.007 h 14.009 c 0.998,0 1.808,0.81 1.808,1.808 0,5.815 -3.16,9.131 -4.745,10.428 v 113.959 c 0,0.998 -0.81,1.808 -1.808,1.808 h -168.222 z"
         id="path117" />
      <path
         style="fill:#ffffff"
         inkscape:connector-curvature="0"
         d="M -81.979,88.253 V 72.611 c 0,0 4.692,-2.345 4.692,-7.82 H -89.8 c 0,0 -20.334,-17.205 -64.129,-17.205 -46.142,0 -64.129,17.205 -64.129,17.205 h -12.513 c 0,4.692 4.692,7.82 4.692,7.82 v 15.642 h -15.641 c 0,5.646 5.474,9.41 5.474,9.41 V 208.69 H -71.03 V 97.663 c 0,0 4.692,-2.823 4.692,-9.41 h -15.641 z m -65.246,108.706 h -12.514 l -3.574,-10.725 18.77,-1.788 -2.682,12.513 z m 15.321,-19.469 -44.047,4.805 v -3.203 l 44.047,-4.806 v 3.204 z m 0,-8.007 -44.047,4.803 v -3.201 l 44.047,-4.805 v 3.203 z m 0,-8.008 -44.047,4.806 v -3.205 l 44.047,-4.805 v 3.204 z m 0,-8.009 -44.047,4.805 v -3.202 l 44.047,-4.806 v 3.203 z m -30.832,-29.913 0.094,0.116 2.902,-3.575 2.9,3.576 2.904,-3.577 2.904,3.576 2.905,-3.577 2.908,3.575 0.224,-0.274 -3.442,23.402 h -10.979 l -3.32,-23.242 z m 23.352,23.242 h -5.439 l 4.283,-29.122 -3.537,-0.52 -0.409,2.782 -0.731,0.9 -2.91,-3.577 -2.903,3.574 -2.904,-3.575 -2.904,3.575 -2.9,-3.575 -2.902,3.575 -0.586,-0.72 -0.55,-3.848 -3.538,0.507 4.29,30.022 h -5.445 c 0,-20.444 -16.738,-24.665 -16.738,-50.833 0,-16.196 15.085,-31.281 31.282,-31.281 16.197,0 31.282,15.085 31.282,31.281 -0.003,22.812 -16.741,32.179 -16.741,50.835 z"
         id="path119" />
    </g>
  </g>
</svg>
