<?xml version="1.0" encoding="UTF-8" standalone="no"?>
<!-- Generator: Adobe Illustrator 16.0.4, SVG Export Plug-In . SVG Version: 6.00 Build 0)  -->

<svg
   xmlns:dc="http://purl.org/dc/elements/1.1/"
   xmlns:cc="http://creativecommons.org/ns#"
   xmlns:rdf="http://www.w3.org/1999/02/22-rdf-syntax-ns#"
   xmlns:svg="http://www.w3.org/2000/svg"
   xmlns="http://www.w3.org/2000/svg"
   xmlns:sodipodi="http://sodipodi.sourceforge.net/DTD/sodipodi-0.dtd"
   xmlns:inkscape="http://www.inkscape.org/namespaces/inkscape"
   version="1.1"
   id="Layer_1"
   x="0px"
   y="0px"
   width="231.701px"
   height="223.16px"
   viewBox="0 0 231.701 223.16"
   enable-background="new 0 0 231.701 223.16"
   xml:space="preserve"
   inkscape:version="0.91 r13725"
   sodipodi:docname="checkedBox.svg"><metadata
     id="metadata3351"><rdf:RDF><cc:Work
         rdf:about=""><dc:format>image/svg+xml</dc:format><dc:type
           rdf:resource="http://purl.org/dc/dcmitype/StillImage" /></cc:Work></rdf:RDF></metadata><defs
     id="defs3349" /><sodipodi:namedview
     pagecolor="#ffffff"
     bordercolor="#666666"
     borderopacity="1"
     objecttolerance="10"
     gridtolerance="10"
     guidetolerance="10"
     inkscape:pageopacity="0"
     inkscape:pageshadow="2"
     inkscape:window-width="1600"
     inkscape:window-height="838"
     id="namedview3347"
     showgrid="false"
     inkscape:zoom="2.1197994"
     inkscape:cx="168.81148"
     inkscape:cy="89.403676"
     inkscape:window-x="-8"
     inkscape:window-y="-8"
     inkscape:window-maximized="1"
     inkscape:current-layer="Layer_1" /><g
     id="g3353"
     transform="matrix(0.82906407,0,0,0.82906407,23.587139,9.647984)"><g
       id="g3337"><g
         id="g3339"><g
           id="g3341"><path
             id="path3343"
             d="m 49.754,100.46 c 1.527,-3.464 3.246,-3.678 6.263,-1.938 16.747,9.669 24.209,13.86 41.048,23.368 1.19,0.67 2.392,1.32 3.734,2.06 44.49,-60.456 62.51,-84.762 127.918,-123.95 1.073,1.334 1.977,2.453 2.984,3.707 -0.666,0.76 -1.165,1.457 -1.786,2.019 -61.518,55.586 -76.996,91.269 -113.352,165.437 -3.979,8.119 -4.174,7.884 -9.856,1.263 -21.513,-25.07 -33.698,-44.821 -55.269,-69.847 -0.568,-0.661 -1.087,-1.366 -1.684,-2.119 z"
             inkscape:connector-curvature="0"
             style="clip-rule:evenodd;fill-rule:evenodd" /></g></g></g><path
       id="path3345"
       d="m 184.851,74.403 c -0.978,1.337 -1.946,2.687 -2.916,4.037 l 0,104.476 c 0,5.105 -4.139,9.244 -9.244,9.244 l -132.447,0 C 35.139,192.16 31,188.021 31,182.916 L 31,50.47 c 0,-5.105 4.139,-9.244 9.244,-9.244 l 112.813,0 c 10.165,-10.622 20.349,-20.408 30.652,-29.454 -3.504,-0.999 -7.198,-1.546 -11.02,-1.546 l -132.445,0 C 18.054,10.226 0,28.279 0,50.47 l 0,132.446 c 0,22.19 18.054,40.244 40.244,40.244 l 132.446,0 c 22.19,0 40.244,-18.054 40.244,-40.244 l 0,-132.446 c 0,-3.415 -0.431,-6.731 -1.235,-9.9 -9.343,10.868 -18.309,22.157 -26.848,33.833 z"
       inkscape:connector-curvature="0" /></g></svg>