<?xml version="1.0" encoding="UTF-8" standalone="no"?>
<!-- Created with Inkscape (http://www.inkscape.org/) -->

<svg
   xmlns:dc="http://purl.org/dc/elements/1.1/"
   xmlns:cc="http://creativecommons.org/ns#"
   xmlns:rdf="http://www.w3.org/1999/02/22-rdf-syntax-ns#"
   xmlns:svg="http://www.w3.org/2000/svg"
   xmlns="http://www.w3.org/2000/svg"
   xmlns:sodipodi="http://sodipodi.sourceforge.net/DTD/sodipodi-0.dtd"
   xmlns:inkscape="http://www.inkscape.org/namespaces/inkscape"
   width="64px"
   height="64px"
   viewBox="0 0 64 64"
   id="svg3385"
   version="1.1"
   inkscape:version="0.48.2 r9819"
   sodipodi:docname="customerService.svg"
   inkscape:export-filename="C:\workspaces_3.7\workspace\Horizon3\WebContent\app\Learn\assets\images\storeInventory.png"
   inkscape:export-xdpi="180"
   inkscape:export-ydpi="180">
  <defs
     id="defs3387" />
  <sodipodi:namedview
     id="base"
     pagecolor="#ffffff"
     bordercolor="#666666"
     borderopacity="1.0"
     inkscape:pageopacity="0.0"
     inkscape:pageshadow="2"
     inkscape:zoom="7.7781745"
     inkscape:cx="45.922799"
     inkscape:cy="25.956601"
     inkscape:current-layer="layer1"
     showgrid="true"
     inkscape:document-units="px"
     inkscape:grid-bbox="true"
     inkscape:window-width="1117"
     inkscape:window-height="935"
     inkscape:window-x="149"
     inkscape:window-y="59"
     inkscape:window-maximized="0" />
  <metadata
     id="metadata3390">
    <rdf:RDF>
      <cc:Work
         rdf:about="">
        <dc:format>image/svg+xml</dc:format>
        <dc:type
           rdf:resource="http://purl.org/dc/dcmitype/StillImage" />
        <dc:title></dc:title>
      </cc:Work>
    </rdf:RDF>
  </metadata>
  <g
     id="layer1"
     inkscape:label="Layer 1"
     inkscape:groupmode="layer">
    <g
       transform="matrix(0.34687762,0,0,0.34882137,-11.959821,83.093784)"
       id="g121">
      <path
         style="fill:#9cb33b"
         inkscape:connector-curvature="0"
         d="m 125.854,-54.738 c -0.832,0 -1.644,-0.29 -2.287,-0.817 l -14.637,-12 c -33.113,-27.041 -56.304,-55.373 -66.834,-79.201 -10.317,-23.294 -10.141,-50.17 0.448,-68.471 7.604,-13.143 19.704,-20.939 34.992,-22.546 2.779,-0.292 5.544,-0.44 8.216,-0.44 22.733,0 36.464,10.348 43.184,17.409 l 0.178,-0.162 c 11.606,-10.596 24.311,-15.97 37.757,-15.97 6.459,0 13.021,1.271 19.507,3.776 13.353,5.143 24.17,14.976 29.013,28.435 6.925,19.24 3.947,43.422 -9.925,68.093 -23.366,41.604 -72.992,78.089 -75.051,79.514 l -2.502,1.737 c -0.612,0.421 -1.322,0.643 -2.059,0.643 z"
         id="path123" />
      <path
         style="fill:#ffffff"
         inkscape:connector-curvature="0"
         d="m 210.795,-203.504 c -4.479,-12.444 -13.372,-21.535 -25.718,-26.291 -6.069,-2.345 -12.195,-3.534 -18.207,-3.534 -12.519,0 -24.404,5.058 -35.329,15.032 l -0.488,0.443 c -0.903,0.813 -1.715,1.533 -2.419,2.158 -5.362,-6.567 -18.662,-18.911 -42.882,-18.911 -2.549,0 -5.188,0.142 -7.839,0.421 -14.092,1.481 -25.242,8.66 -32.246,20.764 -10.03,17.335 -10.136,42.931 -0.271,65.205 10.298,23.3 32.09,48.648 64.763,75.33 l 14.638,11.999 2.508,-1.74 c 2.033,-1.406 50.058,-34.981 72.969,-75.776 13.349,-23.741 17.085,-46.862 10.521,-65.1 z M 99.499,-95.134 c -3.236,-2.875 -6.758,-6.108 -10.413,-9.642 v -22.144 c 0,-11.579 6.332,-21.528 15.39,-25.898 0.216,9.835 0.702,49.03 -4.977,57.684 z m 26.577,-105.41 c 11.53,0 20.875,9.263 20.875,20.689 0,11.425 -9.345,20.687 -20.875,20.687 -11.531,0 -20.876,-9.262 -20.876,-20.687 0,-11.427 9.345,-20.689 20.876,-20.689 z m 15.484,63.187 c 0,0 -6.115,8.187 -14.302,8.187 -8.186,0 -19.23,-8.187 -19.23,-8.187 v -16.84 c 2.153,-0.644 4.416,-0.994 6.755,-0.994 0,0 2.268,2.83 11.289,2.83 6.315,0 11.3,-2.83 11.3,-2.83 1.428,0 2.825,0.133 4.188,0.38 v 17.454 z m 21.504,31.416 c -3.212,3.16 -6.392,6.143 -9.468,8.927 -5.633,-8.62 -7.178,-43.564 -7.561,-56.524 9.926,3.913 17.028,14.352 17.028,26.62 v 20.977 z"
         id="path125" />
    </g>
  </g>
</svg>
