<?xml version="1.0" standalone="no"?>
<!DOCTYPE svg PUBLIC "-//W3C//DTD SVG 20010904//EN"
 "http://www.w3.org/TR/2001/REC-SVG-20010904/DTD/svg10.dtd">
<svg version="1.0" xmlns="http://www.w3.org/2000/svg"
 width="600.000000pt" height="600.000000pt" viewBox="0 0 600.000000 600.000000"
 preserveAspectRatio="xMidYMid meet">
<metadata>
Created by potrace 1.12, written by Peter Selinger 2001-2015
</metadata>
<g transform="translate(0.000000,600.000000) scale(0.100000,-0.100000)"
fill="#000000" stroke="none">
<path d="M2778 4609 l-3 -152 -90 -31 c-49 -18 -117 -46 -150 -63 l-60 -32
-108 107 -107 107 -202 -203 -203 -202 109 -109 110 -110 -37 -74 c-19 -41
-46 -109 -59 -151 l-23 -76 -157 0 -158 0 0 -139 0 -138 -50 -6 c-57 -7 -92
-27 -109 -63 -23 -52 -241 -830 -241 -862 0 -25 9 -43 34 -68 33 -33 36 -34
115 -34 l80 0 3 -482 c3 -482 3 -483 26 -530 32 -65 94 -125 160 -156 l57 -27
1350 0 1350 0 52 24 c70 31 144 111 171 184 21 56 22 71 22 522 l0 465 80 0
c73 0 82 2 110 28 54 48 53 57 -79 516 -68 237 -128 428 -138 439 -23 26 -74
47 -113 47 l-30 0 0 140 0 140 -158 0 -159 0 -17 62 c-10 34 -36 102 -58 151
l-41 88 109 110 109 109 -203 202 -202 203 -108 -108 -108 -107 -58 31 c-32
17 -99 46 -149 64 l-92 33 -3 151 -3 151 -284 0 -284 0 -3 -151z m455 -917
c117 -58 210 -182 224 -300 l6 -52 -398 0 -398 0 6 51 c13 110 91 225 193 285
71 42 128 54 222 50 68 -3 95 -10 145 -34z m1227 -655 c0 -2 23 -99 50 -215
28 -116 50 -214 50 -217 0 -3 -673 -5 -1495 -5 -869 0 -1495 4 -1495 9 0 9 87
383 96 414 5 16 80 17 1400 17 767 0 1394 -2 1394 -3z m-90 -1183 l0 -396 -29
-29 -29 -29 -1247 0 -1247 0 -29 29 -29 29 0 396 0 396 1305 0 1305 0 0 -396z"/>
</g>
</svg>
