<?xml version="1.0" encoding="UTF-8" standalone="no"?>
<!-- Created with Inkscape (http://www.inkscape.org/) -->

<svg
   xmlns:dc="http://purl.org/dc/elements/1.1/"
   xmlns:cc="http://creativecommons.org/ns#"
   xmlns:rdf="http://www.w3.org/1999/02/22-rdf-syntax-ns#"
   xmlns:svg="http://www.w3.org/2000/svg"
   xmlns="http://www.w3.org/2000/svg"
   xmlns:sodipodi="http://sodipodi.sourceforge.net/DTD/sodipodi-0.dtd"
   xmlns:inkscape="http://www.inkscape.org/namespaces/inkscape"
   width="64px"
   height="64px"
   viewBox="0 0 64 64"
   id="svg3385"
   version="1.1"
   inkscape:version="0.48.2 r9819"
   sodipodi:docname="repair.svg"
   inkscape:export-filename="C:\workspaces_3.7\workspace\Horizon3\WebContent\app\Learn\assets\images\storeInventory.png"
   inkscape:export-xdpi="180"
   inkscape:export-ydpi="180">
  <defs
     id="defs3387" />
  <sodipodi:namedview
     id="base"
     pagecolor="#ffffff"
     bordercolor="#666666"
     borderopacity="1.0"
     inkscape:pageopacity="0.0"
     inkscape:pageshadow="2"
     inkscape:zoom="7.7781745"
     inkscape:cx="45.922799"
     inkscape:cy="25.956601"
     inkscape:current-layer="layer1"
     showgrid="true"
     inkscape:document-units="px"
     inkscape:grid-bbox="true"
     inkscape:window-width="1117"
     inkscape:window-height="935"
     inkscape:window-x="149"
     inkscape:window-y="59"
     inkscape:window-maximized="0" />
  <metadata
     id="metadata3390">
    <rdf:RDF>
      <cc:Work
         rdf:about="">
        <dc:format>image/svg+xml</dc:format>
        <dc:type
           rdf:resource="http://purl.org/dc/dcmitype/StillImage" />
        <dc:title></dc:title>
      </cc:Work>
    </rdf:RDF>
  </metadata>
  <g
     id="layer1"
     inkscape:label="Layer 1"
     inkscape:groupmode="layer">
    <g
       transform="matrix(0.36950861,0,0,0.39678739,88.535372,92.502045)"
       id="g353">
      <path
         style="fill:#d8ba28"
         inkscape:connector-curvature="0"
         d="m -66.4,-217.213 c 0,-6.504 -3.521,-10.874 -8.763,-10.874 -1.852,0 -3.894,0.552 -6.069,1.64 -10.643,5.32 -18.295,9.446 -19.827,14.049 -1.275,3.275 -24.976,46.846 -41.09,76.242 l -13.854,3.198 c -0.15,0.016 -0.38,0.04 -0.677,0.07 -0.195,-1.834 -0.859,-2.93 -1.37,-3.757 -0.5,-0.813 -0.974,-1.579 -0.974,-4.786 0,-0.488 0.034,-1.04 0.075,-1.614 l 3.948,-1.974 1,3 3,-1 -3,-8 -3,1 1,3 -2.775,1.665 c 0.192,-2.988 0.116,-6.371 -2.22,-8.902 -1.716,-1.86 -4.287,-2.804 -7.643,-2.804 -0.028,0 -0.055,0.008 -0.082,0.008 1.456,-1.354 3.444,-3.487 5.191,-6.355 3.464,-5.684 -1.753,-10.109 -5.205,-13.037 -2.776,-2.355 -5.647,-4.791 -5.709,-7.399 -0.05,-2.092 1.66,-4.817 4.943,-7.883 14.538,-13.568 20.001,-22.207 17.714,-28.01 -1.362,-3.456 -5.012,-4.688 -7.974,-4.688 -0.222,0 -0.346,0.008 -0.346,0.008 -1.414,0.084 -2.666,0.992 -3.169,2.316 -0.503,1.325 -0.2,2.822 0.802,3.824 1.396,1.397 1.35,1.939 1.334,2.117 -0.138,1.576 -2.858,5.245 -15.037,13.779 -10.029,7.026 -11.891,14.32 -11.686,19.202 0.146,3.479 1.371,6.685 3.132,9.402 -1.993,0.979 -5.821,3.414 -6.617,7.972 -0.781,4.469 1.724,9.212 7.426,14.104 -0.754,0.183 -1.501,0.368 -2.226,0.557 -9.904,2.582 -11.411,4.168 -12.176,5.696 -1.354,2.706 -2.387,11.872 -2.768,15.687 -0.054,0.535 0.022,1.05 0.188,1.527 -0.563,1.175 -4.177,8.077 -11.682,8.958 -1.364,0.16 -2.5,1.084 -2.959,2.361 -2.193,-1.049 -4.638,-1.653 -7.227,-1.653 -9.281,0 -16.831,7.55 -16.831,16.831 0,9.281 7.55,19.822 16.831,19.822 6.318,0 11.827,-3.503 14.706,-8.665 0.355,0.25 0.75,0.445 1.18,0.554 8.675,2.19 16.281,3.3 22.607,3.3 5.97,0 12.819,-0.99 20.356,-2.944 0.446,-0.115 0.855,-0.322 1.22,-0.589 2.926,4.982 8.326,8.345 14.511,8.345 6.495,0 12.131,-3.704 14.937,-9.105 0.088,0.608 0.311,1.193 0.694,1.69 0.636,0.825 1.599,1.333 2.638,1.395 0.84,0.05 20.652,1.209 29.082,1.209 8.688,0 13.05,-2.99 17.654,-12.197 2.021,-4.041 5.144,-11.026 7.898,-17.189 2.204,-4.93 4.286,-9.586 5.333,-11.68 1.676,-3.352 1.498,-7.406 -0.465,-10.582 -1.705,-2.76 -4.521,-4.407 -7.531,-4.407 -0.702,0 -1.412,0.089 -2.109,0.263 -3.747,0.937 -21.021,3.129 -30.942,4.499 l -7,-7.981 21,-42 c 1.306,0.593 4.763,2.981 6,2.981 3.978,0 7.253,-5.343 10.058,-9.418 0.549,-0.798 1.156,-1.68 1.843,-2.641 1.532,-2.146 2.715,-5.324 1.437,-7.808 -0.37,-0.72 -0.924,-1.298 -1.584,-1.692 6.888,-2.556 12.849,-6.081 12.849,-10.637 z m -106.07,63.196 c -1.248,0.196 -2.596,0.435 -3.984,0.7 0.09,-1.284 -0.499,-2.664 -1.329,-4.559 -3.233,-7.381 -3.042,-9.626 -2.313,-10.21 0.109,-0.087 0.201,-0.188 0.297,-0.285 0.719,0.563 1.447,1.066 2.173,1.489 3.545,2.064 1.877,6.265 1.502,7.096 -0.683,1.472 -0.297,3.22 0.944,4.267 0.668,0.563 1.493,0.848 2.321,0.848 0.216,0 0.43,-0.025 0.643,-0.064 -0.107,0.243 -0.196,0.485 -0.254,0.718 z"
         id="path355" />
      <g
         id="g357">
        <g
           id="g359">
          <path
             style="fill:#ffffff"
             inkscape:connector-curvature="0"
             d="m -165.751,-101.735 c 0,-0.854 0.083,-1.688 0.202,-2.511 -5.674,1.406 -12.199,2.511 -18.727,2.511 -7.164,0 -14.704,-1.328 -21.195,-2.93 0.161,0.955 0.265,1.93 0.265,2.93 0,1.821 -0.28,3.577 -0.796,5.23 6.794,1.715 14.679,3.19 21.727,3.19 6.547,0 13.451,-1.273 19.453,-2.829 -0.594,-1.759 -0.929,-3.634 -0.929,-5.591 z"
             id="path361" />
          <path
             style="fill:#ffffff"
             inkscape:connector-curvature="0"
             d="m -79.623,-223.228 c -7.218,3.608 -16.841,8.421 -18.043,12.029 -1.204,3.608 -42.103,78.188 -42.103,78.188 l -15.638,3.609 c 0,0 -33.681,3.608 -42.101,2.405 0,0 -4.331,10.085 -14.656,11.297 1.897,1.443 3.496,3.256 4.677,5.342 6.37,2.608 14.41,5.014 23.211,5.014 7.955,0 14.435,-1.203 20.58,-4.614 2.954,-5.549 8.794,-9.339 15.507,-9.339 3.257,0 8.188,-0.703 10.188,2.297 l 47,-91 c 0,0 21,-4.401 21,-9.213 0,-4.812 -2.405,-9.623 -9.622,-6.015 z"
             id="path363" />
        </g>
        <path
           style="fill:#ffffff"
           inkscape:connector-curvature="0"
           d="m -172.858,-158.271 c 0,0 3.698,-7.847 -2.956,-11.721 -6.657,-3.876 -15.918,-17.094 1.705,-29.44 17.623,-12.348 18.995,-16.578 14.184,-21.39 0,0 17.243,-0.857 -12.029,26.463 -18.043,16.841 10.241,21.055 5.353,29.078 -2.8,4.594 -6.257,7.01 -6.257,7.01 z"
           id="path365" />
        <path
           style="fill:#ffffff"
           inkscape:connector-curvature="0"
           d="m -181.141,-154.056 c 4.619,3.85 -7.218,-12.028 -1.204,-16.84 0,0 -13.231,4.812 1.204,16.84 z"
           id="path367" />
      </g>
      <path
         style="fill:#ffffff"
         inkscape:connector-curvature="0"
         d="m -95.261,-197.967 c 7.218,6.015 7.218,3.608 10.826,-2.405 3.608,-6.015 4.926,-2.326 2.405,1.202 -6.014,8.421 -6.014,10.826 -14.435,4.812 l 1.204,-3.609 z"
         id="path369" />
      <path
         style="fill:#ffffff"
         inkscape:connector-curvature="0"
         d="m -186.6,-140.319 c 2.1,0 8.399,0 11.199,0 1.4,0 1.4,0.7 1.4,2.101 0,0.7 0,2.1 0,2.8 0,1.4 0,1.4 -1.4,1.4 -2.1,0 -9.8,0 -11.199,0 -1.4,0 -1.4,-0.7 -1.4,-1.4 0,-0.7 0,-4.2 0,-3.5 0,0.7 0,-1.401 1.4,-1.401 z"
         id="path371" />
    </g>
    <path
       style="fill:#ffffff"
       inkscape:connector-curvature="0"
       d="m 31.43964,56.159887 0.746777,0.421785 -0.301888,0.617004 c 0.458929,0.207124 0.954071,0.33846 1.471383,0.386074 v -0.69279 h 0.843958 v 0.69279 c 0.652182,-0.05991 1.266675,-0.257118 1.820199,-0.565024 l -0.344752,-0.586849 0.714261,-0.483683 0.343643,0.58407 c 0.403503,-0.330127 0.758601,-0.722946 1.049774,-1.169333 l -0.559067,-0.347189 0.422718,-0.784844 0.557588,0.345601 c 0.26346,-0.604307 0.42124,-1.270513 0.451909,-1.974413 l -0.641467,0.02698 -0.03289,-0.905469 0.643315,-0.02738 c -0.06466,-0.551929 -0.209512,-1.075688 -0.420871,-1.560563 l -0.557958,0.345603 -0.421609,-0.785243 0.558697,-0.346395 c -0.365444,-0.560264 -0.829916,-1.03879 -1.366443,-1.409389 l -0.300041,0.61264 -0.747146,-0.421786 0.301519,-0.616608 c -0.45856,-0.207122 -0.953702,-0.338459 -1.470644,-0.386073 v 0.692395 h -0.844328 v -0.692395 c -0.652182,0.05991 -1.266306,0.257118 -1.820199,0.565026 l 0.344751,0.586451 -0.71389,0.483684 -0.343274,-0.583674 c -0.403873,0.32973 -0.75897,0.722946 -1.050143,1.169729 l 0.558697,0.346395 -0.422348,0.784845 -0.557219,-0.345205 c -0.26383,0.604308 -0.421979,1.270514 -0.452279,1.974018 l 0.641097,-0.02659 0.03326,0.905071 -0.643314,0.02738 c 0.06466,0.551932 0.209142,1.076088 0.42087,1.560962 l 0.557589,-0.345205 0.421978,0.784845 -0.558697,0.346395 c 0.365075,0.560264 0.829547,1.039186 1.366074,1.409787 l 0.30041,-0.613434 z m 2.408457,-5.786748 c 1.020583,0 1.847543,0.888408 1.847543,1.983938 0,1.09672 -0.82696,1.983936 -1.847543,1.983936 -1.020582,0 -1.847543,-0.887216 -1.847543,-1.983936 0,-1.09553 0.826961,-1.983938 1.847543,-1.983938 z"
       id="path373" />
    <path
       style="fill:#ffffff"
       inkscape:connector-curvature="0"
       d="m 3.8702332,56.159887 0.7467769,0.421785 -0.3018885,0.617004 c 0.4589297,0.207124 0.9540712,0.33846 1.4713833,0.386074 v -0.69279 h 0.8439576 v 0.69279 C 7.2826452,57.52484 7.897138,57.327632 8.4506619,57.019726 l -0.3447515,-0.586849 0.7142602,-0.483683 0.343643,0.58407 C 9.567317,56.203137 9.9224147,55.810318 10.213588,55.363931 l -0.559067,-0.347189 0.422718,-0.784844 0.557588,0.345601 c 0.26346,-0.604307 0.42124,-1.270513 0.451909,-1.974413 l -0.641467,0.02698 -0.03289,-0.905469 0.643315,-0.02738 c -0.06466,-0.551931 -0.209512,-1.07569 -0.420871,-1.560565 l -0.557958,0.345603 -0.421609,-0.785243 0.558697,-0.346395 C 9.848509,48.790355 9.3840367,48.311829 8.8475102,47.94123 l -0.300041,0.61264 -0.7471464,-0.421786 0.301519,-0.616608 C 7.6432816,47.308354 7.1481401,47.177017 6.6311975,47.129403 v 0.692395 H 5.7868744 v -0.692395 c -0.6521827,0.05991 -1.266306,0.257118 -1.8201995,0.565026 L 4.3114265,48.28088 3.5975358,48.764564 3.2542623,48.18089 c -0.4038729,0.32973 -0.7589706,0.722946 -1.0501434,1.169729 l 0.558697,0.346395 -0.4223484,0.784845 -0.5572189,-0.345205 C 1.5194194,50.740962 1.3612697,51.407168 1.33097,52.110672 l 0.6410975,-0.02659 0.033256,0.905071 -0.6433145,0.02738 c 0.064664,0.551932 0.2091419,1.076088 0.4208703,1.560962 l 0.5575885,-0.345205 0.4219789,0.784845 -0.558697,0.346395 c 0.3650745,0.560264 0.8295468,1.039186 1.3660733,1.409787 l 0.3004105,-0.613428 z m 2.33862,-5.786748 c 1.0205828,0 1.8475431,0.888408 1.8475431,1.983938 0,1.09672 -0.8269603,1.983936 -1.8475431,1.983936 -1.0205828,0 -1.8475431,-0.887216 -1.8475431,-1.983936 0,-1.09553 0.8269603,-1.983938 1.8475431,-1.983938 z"
       id="path375" />
  </g>
</svg>
