<?xml version="1.0" encoding="UTF-8" standalone="no"?>
<!-- Created with Inkscape (http://www.inkscape.org/) -->

<svg
   xmlns:dc="http://purl.org/dc/elements/1.1/"
   xmlns:cc="http://creativecommons.org/ns#"
   xmlns:rdf="http://www.w3.org/1999/02/22-rdf-syntax-ns#"
   xmlns:svg="http://www.w3.org/2000/svg"
   xmlns="http://www.w3.org/2000/svg"
   xmlns:sodipodi="http://sodipodi.sourceforge.net/DTD/sodipodi-0.dtd"
   xmlns:inkscape="http://www.inkscape.org/namespaces/inkscape"
   width="64px"
   height="64px"
   viewBox="0 0 64 64"
   id="svg3385"
   version="1.1"
   inkscape:version="0.48.2 r9819"
   sodipodi:docname="reverseLogistics.svg"
   inkscape:export-filename="C:\workspaces_3.7\workspace\Horizon3\WebContent\app\Learn\assets\images\storeInventory.png"
   inkscape:export-xdpi="180"
   inkscape:export-ydpi="180">
  <defs
     id="defs3387" />
  <sodipodi:namedview
     id="base"
     pagecolor="#ffffff"
     bordercolor="#666666"
     borderopacity="1.0"
     inkscape:pageopacity="0.0"
     inkscape:pageshadow="2"
     inkscape:zoom="7.7781745"
     inkscape:cx="45.922799"
     inkscape:cy="25.956601"
     inkscape:current-layer="layer1"
     showgrid="true"
     inkscape:document-units="px"
     inkscape:grid-bbox="true"
     inkscape:window-width="1117"
     inkscape:window-height="935"
     inkscape:window-x="149"
     inkscape:window-y="59"
     inkscape:window-maximized="0" />
  <metadata
     id="metadata3390">
    <rdf:RDF>
      <cc:Work
         rdf:about="">
        <dc:format>image/svg+xml</dc:format>
        <dc:type
           rdf:resource="http://purl.org/dc/dcmitype/StillImage" />
        <dc:title></dc:title>
      </cc:Work>
    </rdf:RDF>
  </metadata>
  <g
     id="layer1"
     inkscape:label="Layer 1"
     inkscape:groupmode="layer">
    <g
       transform="matrix(0.320034,0,0,0.34837002,169.93478,85.198277)"
       id="g87">
      <path
         style="fill:#d46d28"
         inkscape:connector-curvature="0"
         d="m -391.505,-125.451 h 52.931 c 0.928,0 1.681,-2.426 1.681,-3.354 v -50.426 c 0,-0.928 -0.753,-1.681 -1.681,-1.681 h -52.931 c -0.928,0 -1.681,0.752 -1.681,1.681 v 52.1 c 0,0.927 0.753,1.68 1.681,1.68 z"
         id="path89" />
      <path
         style="fill:#d46d28"
         inkscape:connector-curvature="0"
         d="m -332.692,-126.292 h -58.803 v -65.545 c 0,-0.928 -0.753,-1.681 -1.681,-1.681 h -5.882 c -0.929,0 -1.681,0.753 -1.681,1.681 v 52.94 h -6.456 l -2.835,-15.43 c -0.146,-0.797 -0.843,-1.377 -1.653,-1.377 h -5.615 c -2.119,-8.243 -13.365,-52.017 -14.047,-54.995 -0.953,-4.17 -3.101,-8.029 -12.27,-8.029 h -36.234 c -5.496,0 -8.61,3.266 -10.099,10.589 -0.388,1.911 -2.14,8.303 -3.236,13.78 h -18.478 v -10.924 c 0,-0.721 -0.46,-1.362 -1.144,-1.593 -0.177,-0.059 -0.357,-0.088 -0.537,-0.088 -0.515,0 -1.015,0.237 -1.338,0.664 l -15.966,21.008 c -0.457,0.601 -0.457,3.777 0,4.378 l 15.966,21.008 c 0.324,0.426 0.823,0.664 1.338,0.664 0.179,0 0.36,-0.029 0.537,-0.088 0.684,-0.23 1.144,-0.872 1.144,-1.593 l -0.01,-10.748 h 15.126 l -3.89,15.966 h -12.086 c -0.733,0 -1.381,0.475 -1.602,1.173 l -15.966,50.419 c -0.162,0.511 -0.07,2.514 0.246,2.946 0.317,0.433 0.82,0.688 1.356,0.688 h 11.909 c 0.838,0 1.546,-0.617 1.663,-1.446 -0.063,0.475 -0.107,0.955 -0.107,1.446 0,6.023 4.9,10.924 10.924,10.924 6.024,0 10.924,-4.9 10.924,-10.924 0,-0.491 -0.044,-0.972 -0.107,-1.446 0.117,0.829 0.825,1.446 1.663,1.446 h 57.392 c 0.838,0 1.546,-0.617 1.662,-1.446 -0.063,0.475 -0.106,0.955 -0.106,1.446 0,6.023 4.901,10.924 10.924,10.924 6.023,0 10.925,-4.9 10.925,-10.924 0,-0.491 -0.045,-0.972 -0.106,-1.446 0.116,0.829 0.824,1.446 1.662,1.446 h 6.848 c 0.499,0 0.972,-0.222 1.291,-0.604 0.319,-0.384 0.452,-2.335 0.361,-2.825 l -3.343,-21.545 h 3.371 v 9.243 c 0,0.929 0.752,1.681 1.681,1.681 h 66.365 c 0.928,0 1.681,-0.752 1.681,-1.681 v -8.403 c -10e-4,-0.926 -0.754,-1.679 -1.681,-1.679 z m -164.214,16.167 c -0.006,-0.005 -0.013,-0.011 -0.02,-0.017 0.007,0.006 0.013,0.012 0.02,0.017 z m -0.713,-0.572 c -0.029,-0.021 -0.057,-0.044 -0.086,-0.064 0.029,0.02 0.057,0.042 0.086,0.064 z m -0.78,-0.528 c -0.048,-0.03 -0.097,-0.06 -0.146,-0.089 0.049,0.03 0.097,0.059 0.146,0.089 z m -0.835,-0.464 c -0.07,-0.035 -0.141,-0.069 -0.211,-0.102 0.07,0.033 0.141,0.066 0.211,0.102 z m -0.885,-0.396 c -0.096,-0.038 -0.193,-0.071 -0.29,-0.106 0.097,0.035 0.195,0.068 0.29,0.106 z m -5.036,-0.708 c 0.349,-0.034 0.701,-0.054 1.057,-0.054 0.356,0 0.708,0.02 1.058,0.054 -0.349,-0.034 -0.701,-0.054 -1.058,-0.054 -0.357,0 -0.709,0.02 -1.057,0.054 z m -6.135,2.668 c 0.006,-0.005 0.013,-0.011 0.019,-0.017 -0.006,0.006 -0.012,0.012 -0.019,0.017 z m 0.713,-0.572 c 0.028,-0.021 0.057,-0.044 0.086,-0.064 -0.029,0.02 -0.057,0.042 -0.086,0.064 z m 0.78,-0.528 c 0.049,-0.03 0.097,-0.06 0.146,-0.089 -0.049,0.03 -0.098,0.059 -0.146,0.089 z m 0.835,-0.464 c 0.07,-0.035 0.141,-0.068 0.212,-0.102 -0.071,0.032 -0.142,0.066 -0.212,0.102 z m 0.885,-0.396 c 0.096,-0.038 0.193,-0.071 0.29,-0.106 -0.097,0.035 -0.194,0.068 -0.29,0.106 z m 0.931,-0.32 c 0.129,-0.038 0.261,-0.068 0.393,-0.102 -0.132,0.033 -0.264,0.065 -0.393,0.102 z m 0.974,-0.238 c 0.184,-0.037 0.37,-0.06 0.557,-0.086 -0.187,0.027 -0.374,0.049 -0.557,0.086 z m 5.122,0.238 c -0.129,-0.037 -0.261,-0.068 -0.392,-0.102 0.131,0.033 0.262,0.064 0.392,0.102 z m -0.974,-0.238 c -0.183,-0.037 -0.37,-0.06 -0.556,-0.086 0.185,0.027 0.372,0.049 0.556,0.086 z m 13.543,-43.06 3.701,-15.966 h 23.539 c 0.928,0 1.681,-0.752 1.681,-1.681 v -19.328 c 0,-0.928 -0.752,-1.68 -1.681,-1.68 h -21.018 c 0.649,-3.848 1.772,-9.191 1.935,-10.084 0.339,-1.851 1.209,-3.361 2.267,-3.361 l 34.884,0.351 c 1.359,0 3.156,0.995 3.771,3.011 0.514,1.686 6.342,26.289 11.766,48.738 h -60.845 z m 60.341,44.941 c -0.028,0.021 -0.057,0.043 -0.086,0.064 0.03,-0.021 0.058,-0.043 0.086,-0.064 z m -0.779,0.62 c -0.007,0.006 -0.013,0.012 -0.02,0.017 0.007,-0.005 0.013,-0.011 0.02,-0.017 z m 6.114,-2.651 c 0.349,-0.034 0.702,-0.054 1.058,-0.054 0.356,0 0.71,0.02 1.059,0.054 -0.349,-0.034 -0.701,-0.054 -1.059,-0.054 -0.357,0 -0.709,0.02 -1.058,0.054 z m -4.641,1.569 c 0.049,-0.03 0.098,-0.061 0.148,-0.09 -0.051,0.03 -0.099,0.06 -0.148,0.09 z m 0.835,-0.465 c 0.07,-0.035 0.142,-0.069 0.214,-0.103 -0.073,0.033 -0.144,0.067 -0.214,0.103 z m 0.884,-0.396 c 0.097,-0.038 0.194,-0.071 0.291,-0.106 -0.096,0.034 -0.194,0.068 -0.291,0.106 z m 0.933,-0.32 c 0.129,-0.038 0.262,-0.068 0.393,-0.102 -0.131,0.033 -0.264,0.065 -0.393,0.102 z m 0.974,-0.238 c 0.184,-0.037 0.371,-0.06 0.558,-0.086 -0.187,0.027 -0.376,0.049 -0.558,0.086 z m 6.053,0.558 c -0.097,-0.038 -0.194,-0.072 -0.291,-0.106 0.097,0.035 0.195,0.068 0.291,0.106 z m -0.932,-0.32 c -0.129,-0.037 -0.262,-0.068 -0.393,-0.102 0.131,0.033 0.264,0.064 0.393,0.102 z m -0.974,-0.238 c -0.183,-0.037 -0.371,-0.06 -0.558,-0.086 0.187,0.027 0.375,0.049 0.558,0.086 z m 2.577,0.851 c 0.072,0.033 0.144,0.067 0.214,0.103 -0.07,-0.036 -0.141,-0.07 -0.214,-0.103 z m 0.901,0.479 c 0.051,0.029 0.1,0.06 0.148,0.09 -0.049,-0.031 -0.098,-0.061 -0.148,-0.09 z m 0.841,0.551 c 0.028,0.021 0.057,0.043 0.086,0.064 -0.029,-0.021 -0.057,-0.043 -0.086,-0.064 z m 0.78,0.62 c 0.007,0.006 0.013,0.012 0.02,0.017 -0.008,-0.005 -0.013,-0.011 -0.02,-0.017 z"
         id="path91" />
    </g>
    <g
       transform="matrix(0.320034,0,0,0.34837002,169.93478,85.198277)"
       id="g93">
      <path
         style="fill:#ffffff"
         inkscape:connector-curvature="0"
         d="m -338.574,-179.232 h -22.329 v 12.968 l -7.204,1.437 v -14.404 h -20.887 v 50.426 h 50.42 v -50.427 z m -11.524,42.502 h -28.813 v -2.886 h 28.813 v 2.886 z m 0,-6.487 h -28.813 v -2.882 h 28.813 v 2.882 z m 9.366,-18.729 h -14.41 v -14.397 h 14.41 v 14.397 z"
         id="path95" />
      <path
         style="fill:#ffffff"
         inkscape:connector-curvature="0"
         d="m -393.176,-124.611 v -67.226 h -5.882 v 54.621 h -9.537 l -3.088,-16.807 h -6.919 c -1.752,-6.814 -13.67,-53.188 -14.381,-56.301 -0.77,-3.361 -2.229,-6.723 -10.632,-6.723 -5.378,0 -32.393,0 -36.234,0 -3.841,0 -6.915,1.681 -8.452,9.244 -0.388,1.91 -2.106,7.97 -3.203,13.445 h 7.563 c 0.65,-3.859 1.623,-8.348 1.786,-9.244 0.768,-4.202 1.537,-7.563 3.841,-7.563 2.305,0 32.394,0 34.698,0 2.305,0 4.61,2.521 5.378,5.042 0.71,2.329 11.145,45.521 12.733,52.1 h -64.962 c 0.395,-2.375 1.581,-9.499 2.939,-17.646 h -8.008 c -1.952,9.775 -3.522,17.646 -3.522,17.646 h -13.465 l -15.966,50.419 h 11.909 c 0.824,-6.164 6.09,-10.924 12.48,-10.924 6.39,0 11.657,4.76 12.48,10.924 h 57.392 c 0.824,-6.164 6.09,-10.924 12.479,-10.924 6.391,0 11.656,4.76 12.48,10.924 h 6.848 l -4.632,-25.209 h 7.993 v 4.201 6.723 h 5.882 60.483 v -6.723 h -60.481 z"
         id="path97" />
      <polygon
         style="fill:#ffffff"
         points="-461.242,-175.03 -461.242,-192.677 -513.341,-192.677 -513.341,-205.282 -529.308,-184.274 -513.341,-163.266 -513.341,-175.03 "
         id="polygon99" />
      <path
         style="fill:#ffffff"
         inkscape:connector-curvature="0"
         d="m -421.747,-111.166 c -5.097,0 -9.243,4.146 -9.243,9.243 0,5.098 4.146,9.244 9.243,9.244 5.098,0 9.244,-4.146 9.244,-9.244 0,-5.097 -4.146,-9.243 -9.244,-9.243 z"
         id="path101" />
      <path
         style="fill:#ffffff"
         inkscape:connector-curvature="0"
         d="m -504.098,-111.166 c -5.097,0 -9.243,4.146 -9.243,9.243 0,5.098 4.146,9.244 9.243,9.244 5.097,0 9.244,-4.146 9.244,-9.244 0,-5.097 -4.147,-9.243 -9.244,-9.243 z"
         id="path103" />
    </g>
  </g>
</svg>
