<?xml version="1.0" encoding="UTF-8" standalone="no"?>
<!-- Created with Inkscape (http://www.inkscape.org/) -->

<svg
   xmlns:dc="http://purl.org/dc/elements/1.1/"
   xmlns:cc="http://creativecommons.org/ns#"
   xmlns:rdf="http://www.w3.org/1999/02/22-rdf-syntax-ns#"
   xmlns:svg="http://www.w3.org/2000/svg"
   xmlns="http://www.w3.org/2000/svg"
   xmlns:sodipodi="http://sodipodi.sourceforge.net/DTD/sodipodi-0.dtd"
   xmlns:inkscape="http://www.inkscape.org/namespaces/inkscape"
   width="64px"
   height="64px"
   viewBox="0 0 64 64"
   id="svg3385"
   version="1.1"
   inkscape:version="0.48.2 r9819"
   sodipodi:docname="storeMerchandising.svg"
   inkscape:export-filename="C:\workspaces_3.7\workspace\Horizon3\WebContent\app\Learn\assets\images\storeInventory.png"
   inkscape:export-xdpi="180"
   inkscape:export-ydpi="180">
  <defs
     id="defs3387" />
  <sodipodi:namedview
     id="base"
     pagecolor="#ffffff"
     bordercolor="#666666"
     borderopacity="1.0"
     inkscape:pageopacity="0.0"
     inkscape:pageshadow="2"
     inkscape:zoom="7.7781745"
     inkscape:cx="45.922799"
     inkscape:cy="25.956601"
     inkscape:current-layer="layer1"
     showgrid="true"
     inkscape:document-units="px"
     inkscape:grid-bbox="true"
     inkscape:window-width="1117"
     inkscape:window-height="935"
     inkscape:window-x="149"
     inkscape:window-y="59"
     inkscape:window-maximized="0" />
  <metadata
     id="metadata3390">
    <rdf:RDF>
      <cc:Work
         rdf:about="">
        <dc:format>image/svg+xml</dc:format>
        <dc:type
           rdf:resource="http://purl.org/dc/dcmitype/StillImage" />
        <dc:title></dc:title>
      </cc:Work>
    </rdf:RDF>
  </metadata>
  <g
     id="layer1"
     inkscape:label="Layer 1"
     inkscape:groupmode="layer">
    <g
       transform="matrix(0.32465652,0,0,0.33266454,259.72522,-10.312601)"
       id="g67">
      <path
         style="fill:#4fa892"
         inkscape:connector-curvature="0"
         d="m -689.04,223.386 c -0.426,0 -0.838,-0.158 -1.155,-0.446 l -109.243,-99.371 c -0.358,-0.326 -0.562,-5.377 -0.562,-5.86 V 61.477 c 0,-0.455 0.181,-0.892 0.503,-1.214 l 28.76,-28.76 c 0.322,-0.321 0.759,-0.503 1.214,-0.503 h 42.924 c 0.344,0 0.679,0.104 0.964,0.296 l 122.013,82.737 c 0.401,0.271 0.668,0.701 0.736,1.181 0.069,0.479 -0.069,5.556 -0.379,5.928 l -84.454,101.625 c -0.299,0.36 -0.733,0.503 -1.201,0.536 -0.04,0.003 -0.08,0.083 -0.12,0.083 z M -768.665,53.321 c -3.787,0 -6.868,3.081 -6.868,6.868 0,3.787 3.081,6.868 6.868,6.868 3.787,0 6.868,-3.081 6.868,-6.868 0,-3.787 -3.081,-6.868 -6.868,-6.868 z"
         id="path69" />
      <path
         style="fill:#ffffff"
         inkscape:connector-curvature="0"
         d="m -740.706,99.786 c 0.285,2.568 1.632,4.875 4.037,6.919 2.01,1.708 4.23,2.502 6.659,2.381 2.429,-0.12 5.25,-1.168 8.464,-3.149 l -16.806,-14.28 c -1.854,2.85 -2.64,5.56 -2.354,8.129 z"
         id="path71" />
      <path
         style="fill:#ffffff"
         inkscape:connector-curvature="0"
         d="m -684.924,112.626 c -2.34,-1.988 -4.843,-2.967 -7.509,-2.934 -2.667,0.031 -5.646,1.118 -8.94,3.256 l 18.635,15.837 c 1.935,-3.011 2.712,-5.896 2.335,-8.658 -0.378,-2.76 -1.884,-5.263 -4.521,-7.501 z"
         id="path73" />
      <path
         style="fill:#ffffff"
         inkscape:connector-curvature="0"
         d="m -726.599,32.717 h -42.924 l -28.76,28.76 v 56.231 l 109.243,99.37 84.454,-101.623 -122.013,-82.738 z m -42.066,36.057 c -4.741,0 -8.585,-3.844 -8.585,-8.585 0,-4.742 3.844,-8.585 8.585,-8.585 4.74,0 8.584,3.843 8.584,8.585 10e-4,4.742 -3.843,8.585 -8.584,8.585 z m 91.756,75.09 c -6.792,7.056 -13.682,10.791 -20.673,11.205 -6.992,0.415 -14.128,-2.472 -21.411,-8.66 l 11.256,-13.247 c 3.7,2.859 7.215,4.416 10.549,4.664 3.333,0.251 6.484,-0.801 9.453,-3.16 l -20.464,-17.39 c -8.44,5.995 -15.598,9.277 -21.474,9.845 -5.875,0.57 -11.53,-1.455 -16.967,-6.077 -6.031,-5.124 -9.26,-11.173 -9.688,-18.148 -0.429,-6.976 2.005,-13.745 7.3,-20.311 l -6.328,-5.377 4.999,-5.883 6.327,5.376 c 5.79,-6.146 11.982,-9.51 18.577,-10.093 6.595,-0.579 13.258,1.678 19.993,6.774 l -11.424,13.447 c -3.261,-2.375 -6.231,-3.637 -8.913,-3.788 -2.682,-0.15 -5.101,0.845 -7.259,2.982 l 17.993,15.29 c 9.454,-5.981 17.226,-9.253 23.317,-9.809 6.09,-0.558 11.805,1.433 17.144,5.969 6.295,5.349 9.674,11.555 10.141,18.618 0.466,7.065 -1.983,14.392 -7.35,21.974 l 9.392,7.981 -4.998,5.883 -9.492,-8.065 z"
         id="path75" />
    </g>
  </g>
</svg>
