<?xml version="1.0" encoding="UTF-8" standalone="no"?>
<!-- Created with Inkscape (http://www.inkscape.org/) -->

<svg
   xmlns:dc="http://purl.org/dc/elements/1.1/"
   xmlns:cc="http://creativecommons.org/ns#"
   xmlns:rdf="http://www.w3.org/1999/02/22-rdf-syntax-ns#"
   xmlns:svg="http://www.w3.org/2000/svg"
   xmlns="http://www.w3.org/2000/svg"
   xmlns:sodipodi="http://sodipodi.sourceforge.net/DTD/sodipodi-0.dtd"
   xmlns:inkscape="http://www.inkscape.org/namespaces/inkscape"
   width="64px"
   height="64px"
   viewBox="0 0 64 64"
   id="svg3385"
   version="1.1"
   inkscape:version="0.48.2 r9819"
   sodipodi:docname="storeInventory.svg">
  <defs
     id="defs3387" />
  <sodipodi:namedview
     id="base"
     pagecolor="#ffffff"
     bordercolor="#666666"
     borderopacity="1.0"
     inkscape:pageopacity="0.0"
     inkscape:pageshadow="2"
     inkscape:zoom="7.7781745"
     inkscape:cx="32.351579"
     inkscape:cy="28.8835"
     inkscape:current-layer="layer1"
     showgrid="true"
     inkscape:document-units="px"
     inkscape:grid-bbox="true"
     inkscape:window-width="1386"
     inkscape:window-height="742"
     inkscape:window-x="75"
     inkscape:window-y="75"
     inkscape:window-maximized="0" />
  <metadata
     id="metadata3390">
    <rdf:RDF>
      <cc:Work
         rdf:about="">
        <dc:format>image/svg+xml</dc:format>
        <dc:type
           rdf:resource="http://purl.org/dc/dcmitype/StillImage" />
        <dc:title></dc:title>
      </cc:Work>
    </rdf:RDF>
  </metadata>
  <g
     id="layer1"
     inkscape:label="Layer 1"
     inkscape:groupmode="layer">
    <g
       transform="matrix(0.34548841,0,0,0.33751358,275.91499,83.977092)"
       id="g37">
      <g
         id="g39">
        <path
           style="fill:#cf2527"
           inkscape:connector-curvature="0"
           d="m -715.078,-170.026 c 1.017,0 1.841,0.824 6.136,3.068 v 72.63 c 0.18,2.922 0.18,5.684 -4.422,5.684 h -75.481 c -1.017,0 -0.7,-5.894 -0.7,-6.91 v -72.631 c 0,-1.017 0.824,-1.841 1.841,-1.841 h 72.626 z"
           id="path41" />
        <path
           style="fill:#cf2527"
           inkscape:connector-curvature="0"
           d="m -625.507,-170.028 c 1.017,0 1.841,0.824 1.841,1.841 v 72.635 c 0,1.017 -1.234,7.827 -2.25,7.827 h -72.719 c -1.017,0 -3.682,-2.665 -3.682,-3.682 v -72.719 c 0,-1.017 3.169,-5.903 4.186,-5.903 h 72.624 z"
           id="path43" />
        <path
           style="fill:#cf2527"
           inkscape:connector-curvature="0"
           d="m -671.503,-248.811 c 1.017,0 1.841,0.824 1.841,1.841 v 72.631 c 0,1.017 -8.627,11.134 -9.644,11.134 h -52.468 c -1.017,0 -14.195,-10.118 -14.195,-11.134 v -72.631 c 0,-1.017 0.824,-1.841 1.841,-1.841 h 72.625 z"
           id="path45" />
        <path
           style="fill:#cf2527"
           inkscape:connector-curvature="0"
           d="m -788.913,-59.189 c -1.017,0 -1.841,-0.824 -1.841,-1.841 v -11.523 c 0,-1.018 0.824,-1.842 1.841,-1.842 h 12.104 c 1.017,0 1.841,0.824 1.841,1.842 v 11.523 c 0,1.017 -0.824,1.841 -1.841,1.841 h -12.104 z"
           id="path47" />
        <path
           style="fill:#cf2527"
           inkscape:connector-curvature="0"
           d="m -637.611,-59.189 c -1.017,0 -1.841,-0.824 -1.841,-1.841 v -11.523 c 0,-1.018 0.824,-1.842 1.841,-1.842 h 12.104 c 1.017,0 1.841,0.824 1.841,1.842 v 11.523 c 0,1.017 -0.824,1.841 -1.841,1.841 h -12.104 z"
           id="path49" />
        <path
           style="fill:#cf2527"
           inkscape:connector-curvature="0"
           d="m -796.782,-72.996 c -1.017,0 -1.841,-0.824 -1.841,-1.842 v -12.241 c 0,-1.017 0.824,-1.841 1.841,-1.841 h 181.563 c 1.017,0 1.841,0.824 1.841,1.841 v 12.241 c 0,1.018 -0.824,1.842 -1.841,1.842 h -181.563 z"
           id="path51" />
      </g>
      <g
         id="g53">
        <path
           style="fill:#ffffff"
           inkscape:connector-curvature="0"
           d="m -745.571,-167.647 v 17.92 l -9.948,1.985 v -19.905 h -28.871 v 69.685 h 69.68 v -69.685 h -30.861 z m 14.932,58.731 h -39.811 v -3.985 h 39.811 v 3.985 z m 0,-8.962 h -39.811 v -3.982 h 39.811 v 3.982 z m 11.949,-25.882 h -19.91 v -19.895 h 19.909 v 19.895 z"
           id="path55" />
        <path
           style="fill:#ffffff"
           inkscape:connector-curvature="0"
           d="m -659.629,-167.649 v 17.921 l -9.957,1.986 v -19.907 h -28.865 v 69.689 h 69.679 v -69.689 h -30.857 z m 14.932,58.735 h -39.821 v -3.986 h 39.821 v 3.986 z m 0,-8.963 h -39.821 v -3.981 h 39.821 v 3.981 z m 12.942,-25.884 h -19.914 v -19.896 h 19.914 v 19.896 z"
           id="path57" />
        <path
           style="fill:#ffffff"
           inkscape:connector-curvature="0"
           d="m -700.777,-243.237 v 17.917 l -9.949,1.992 v -19.908 h -31.855 v 69.685 h 69.679 v -69.685 h -27.875 z m 12.943,56.743 h -39.815 v -3.982 h 39.815 v 3.982 z m 0,-8.962 h -39.815 v -3.98 h 39.815 v 3.98 z m 11.948,-24.88 h -19.907 v -19.917 h 19.907 v 19.917 z"
           id="path59" />
        <rect
           style="fill:#ffffff"
           x="-785.54999"
           y="-75.894997"
           width="11.613"
           height="9.29"
           id="rect61" />
        <rect
           style="fill:#ffffff"
           x="-640.38501"
           y="-75.894997"
           width="11.612"
           height="9.29"
           id="rect63" />
        <rect
           style="fill:#ffffff"
           x="-793.09998"
           y="-89.830002"
           width="174.19901"
           height="9.29"
           id="rect65" />
      </g>
    </g>
  </g>
</svg>
