<?xml version="1.0" encoding="UTF-8" standalone="no"?>
<!-- Created with Inkscape (http://www.inkscape.org/) -->

<svg
   xmlns:dc="http://purl.org/dc/elements/1.1/"
   xmlns:cc="http://creativecommons.org/ns#"
   xmlns:rdf="http://www.w3.org/1999/02/22-rdf-syntax-ns#"
   xmlns:svg="http://www.w3.org/2000/svg"
   xmlns="http://www.w3.org/2000/svg"
   xmlns:sodipodi="http://sodipodi.sourceforge.net/DTD/sodipodi-0.dtd"
   xmlns:inkscape="http://www.inkscape.org/namespaces/inkscape"
   width="64px"
   height="64px"
   viewBox="0 0 64 64"
   version="1.1"
   id="svg2985"
   inkscape:version="0.48.2 r9819"
   sodipodi:docname="StoreDevicePlatform2.svg">
  <metadata
     id="metadata3012">
    <rdf:RDF>
      <cc:Work
         rdf:about="">
        <dc:format>image/svg+xml</dc:format>
        <dc:type
           rdf:resource="http://purl.org/dc/dcmitype/StillImage" />
      </cc:Work>
    </rdf:RDF>
  </metadata>
  <sodipodi:namedview
     pagecolor="#ffffff"
     bordercolor="#666666"
     borderopacity="1"
     objecttolerance="10"
     gridtolerance="10"
     guidetolerance="10"
     inkscape:pageopacity="0"
     inkscape:pageshadow="2"
     inkscape:window-width="1066"
     inkscape:window-height="890"
     id="namedview3010"
     showgrid="false"
     inkscape:zoom="9.73"
     inkscape:cx="32.581819"
     inkscape:cy="31.110041"
     inkscape:window-x="744"
     inkscape:window-y="99"
     inkscape:window-maximized="0"
     inkscape:current-layer="svg2985" />
  <defs
     id="defs4">
    <style
       id="style3067"
       type="text/css">
       .myfill {
         fill: #1b6eae;
       }
       .myfill2 {
         fill: #124b76;
       }
    </style>
  </defs>
  <g
     id="g3822">
    <path
       sodipodi:nodetypes="ccsccccssccsccccsc"
       inkscape:connector-curvature="0"
       id="path3125"
       d="m 24.546655,0.49287076 14.888249,-8.7203e-4 c 0,0 6.707933,1.35253767 8.371469,3.62039147 1.842814,2.5122703 1.445576,8.1159488 1.445576,8.1159488 l -1.045568,1.92724 -0.240351,31.746739 1.206085,1.123917 c 0,0 0.160953,7.636334 -0.804781,10.208189 -0.965746,2.571855 -3.178892,4.701716 -6.076106,5.666178 -2.897214,0.964461 -9.979296,0.747451 -9.979296,0.747451 0,0 -7.80487,0.377712 -9.979296,-0.747451 -1.612604,-0.644428 -5.663512,-3.338117 -6.860766,-6.340877 -0.743994,-1.866012 -0.502345,-9.934746 -0.502345,-9.934746 l 1.206534,-1.60702 0.162263,-30.943852 -1.367488,-1.84446 c 0,0 -0.485467,-5.3876776 1.286344,-7.9578255 1.683008,-2.4413122 8.289477,-3.77895074 8.289477,-3.77895074 z"
       style="fill:#761a1b;fill-opacity:1;stroke:#ffffff;stroke-width:1.0;stroke-miterlimit:4;stroke-opacity:1;stroke-dasharray:none" />
    <rect
       y="11.384712"
       x="18.267212"
       height="40.478004"
       width="27.529621"
       id="rect3895"
       style="fill:#ffffff;fill-opacity:1;stroke:none" />
    <path
       transform="matrix(1.173342,0,0,1.2062446,-121.03345,-1191.2139)"
       d="m 134.92569,1028.7485 a 1.1259893,1.0938182 0 1 1 -2.25198,0 1.1259893,1.0938182 0 1 1 2.25198,0 z"
       sodipodi:ry="1.0938182"
       sodipodi:rx="1.1259893"
       sodipodi:cy="1028.7485"
       sodipodi:cx="133.7997"
       id="path3897"
       style="fill:#ffffff;fill-opacity:1;stroke:#761a1b;stroke-width:0.40000001;stroke-miterlimit:4;stroke-opacity:1;stroke-dasharray:none"
       sodipodi:type="arc" />
    <path
       transform="matrix(1.173342,0,0,1.2062446,-124.76321,-1191.2139)"
       d="m 134.92569,1028.7485 a 1.1259893,1.0938182 0 1 1 -2.25198,0 1.1259893,1.0938182 0 1 1 2.25198,0 z"
       sodipodi:ry="1.0938182"
       sodipodi:rx="1.1259893"
       sodipodi:cy="1028.7485"
       sodipodi:cx="133.7997"
       id="path3897-5"
       style="fill:#ffffff;fill-opacity:1;stroke:#761a1b;stroke-width:0.40000001;stroke-miterlimit:4;stroke-opacity:1;stroke-dasharray:none"
       sodipodi:type="arc" />
    <path
       transform="matrix(1.173342,0,0,1.2062446,-128.52415,-1191.2139)"
       d="m 134.92569,1028.7485 a 1.1259893,1.0938182 0 1 1 -2.25198,0 1.1259893,1.0938182 0 1 1 2.25198,0 z"
       sodipodi:ry="1.0938182"
       sodipodi:rx="1.1259893"
       sodipodi:cy="1028.7485"
       sodipodi:cx="133.7997"
       id="path3897-5-1"
       style="fill:#761a1b;fill-opacity:1;stroke:#761a1b;stroke-width:0.40000001;stroke-miterlimit:4;stroke-opacity:1;stroke-dasharray:none"
       sodipodi:type="arc" />
    <rect
       ry="1.362626"
       y="21.636541"
       x="28.544647"
       height="6.9863806"
       width="6.9956913"
       id="rect3935"
       style="fill:#761a1b;fill-opacity:1;stroke:#761a1b;stroke-width:0.48845538;stroke-miterlimit:4;stroke-opacity:1;stroke-dasharray:none" />
    <rect
       ry="1.362626"
       y="21.636541"
       x="37.590878"
       height="6.9863806"
       width="6.9956913"
       id="rect3935-7"
       style="fill:#761a1b;fill-opacity:1;stroke:#761a1b;stroke-width:0.48845538;stroke-miterlimit:4;stroke-opacity:1;stroke-dasharray:none" />
    <rect
       ry="1.362626"
       y="21.636541"
       x="19.665306"
       height="6.9863806"
       width="6.9956913"
       id="rect3935-7-1"
       style="fill:#761a1b;fill-opacity:1;stroke:#761a1b;stroke-width:0.48845538;stroke-miterlimit:4;stroke-opacity:1;stroke-dasharray:none" />
    <rect
       ry="1.362626"
       y="12.736912"
       x="28.534931"
       height="6.9863806"
       width="6.9956913"
       id="rect3935-1"
       style="fill:#761a1b;fill-opacity:1;stroke:#761a1b;stroke-width:0.48845538;stroke-miterlimit:4;stroke-opacity:1;stroke-dasharray:none" />
    <rect
       ry="1.362626"
       y="12.736912"
       x="37.58115"
       height="6.9863806"
       width="6.9956913"
       id="rect3935-7-5"
       style="fill:#761a1b;fill-opacity:1;stroke:#761a1b;stroke-width:0.48845538;stroke-miterlimit:4;stroke-opacity:1;stroke-dasharray:none" />
    <rect
       ry="1.362626"
       y="12.736912"
       x="19.65559"
       height="6.9863806"
       width="6.9956913"
       id="rect3935-7-1-2"
       style="fill:#761a1b;fill-opacity:1;stroke:#761a1b;stroke-width:0.48845538;stroke-miterlimit:4;stroke-opacity:1;stroke-dasharray:none" />
    <rect
       ry="1.3626548"
       y="39.709827"
       x="28.575806"
       height="6.9865274"
       width="6.9956875"
       id="rect3935-76"
       style="fill:#761a1b;fill-opacity:1;stroke:#761a1b;stroke-width:0.48846036;stroke-miterlimit:4;stroke-opacity:1;stroke-dasharray:none" />
    <rect
       ry="1.3626548"
       y="39.709827"
       x="37.622036"
       height="6.9865274"
       width="6.9956875"
       id="rect3935-7-14"
       style="fill:#761a1b;fill-opacity:1;stroke:#761a1b;stroke-width:0.48846036;stroke-miterlimit:4;stroke-opacity:1;stroke-dasharray:none" />
    <rect
       ry="1.3626548"
       y="39.709827"
       x="19.696486"
       height="6.9865274"
       width="6.9956875"
       id="rect3935-7-1-23"
       style="fill:#761a1b;fill-opacity:1;stroke:#761a1b;stroke-width:0.48846036;stroke-miterlimit:4;stroke-opacity:1;stroke-dasharray:none" />
    <rect
       ry="1.3626548"
       y="30.685577"
       x="28.566109"
       height="6.9865274"
       width="6.9956875"
       id="rect3935-1-2"
       style="fill:#761a1b;fill-opacity:1;stroke:#761a1b;stroke-width:0.48846036;stroke-miterlimit:4;stroke-opacity:1;stroke-dasharray:none" />
    <rect
       ry="1.3626548"
       y="30.685577"
       x="37.612309"
       height="6.9865274"
       width="6.9956875"
       id="rect3935-7-5-2"
       style="fill:#761a1b;fill-opacity:1;stroke:#761a1b;stroke-width:0.48846036;stroke-miterlimit:4;stroke-opacity:1;stroke-dasharray:none" />
    <rect
       ry="1.3626548"
       y="30.685577"
       x="19.686777"
       height="6.9865274"
       width="6.9956875"
       id="rect3935-7-1-2-1"
       style="fill:#761a1b;fill-opacity:1;stroke:#761a1b;stroke-width:0.48846036;stroke-miterlimit:4;stroke-opacity:1;stroke-dasharray:none" />
    <path
       transform="matrix(1.2906762,0,0,1.3268691,-149.74448,-1357.587)"
       d="m 134.92569,1028.7485 a 1.1259893,1.0938182 0 1 1 -2.25198,0 1.1259893,1.0938182 0 1 1 2.25198,0 z"
       sodipodi:ry="1.0938182"
       sodipodi:rx="1.1259893"
       sodipodi:cy="1028.7485"
       sodipodi:cx="133.7997"
       id="path3897-5-6"
       style="fill:#ffffff;fill-opacity:1;stroke:#761a1b;stroke-width:0.40000001;stroke-miterlimit:4;stroke-opacity:1;stroke-dasharray:none"
       sodipodi:type="arc" />
    <rect
       ry="1.1169323"
       y="6.4229183"
       x="25.824003"
       height="2.2338645"
       width="12.904856"
       id="rect4048"
       style="fill:#ffffff;fill-opacity:1;stroke:#761a1b;stroke-width:0;stroke-miterlimit:4;stroke-opacity:1;stroke-dasharray:none" />
  </g>
</svg>
